<?xml version="1.0" encoding="utf-8" ?><svg xmlns="http://www.w3.org/2000/svg" xmlns:xlink="http://www.w3.org/1999/xlink" width="670" height="670" viewBox="0 0 670 670"><defs><linearGradient id="gradient_0" gradientUnits="userSpaceOnUse" x1="41.805107" y1="472.86197" x2="314.88171" y2="525.09833"><stop offset="0" stop-color="#003265"/><stop offset="1" stop-color="#015F9F" stop-opacity="0.98823529"/></linearGradient></defs><path fill="url(#gradient_0)" d="M253.046 409.054C250.345 399.62 252.685 387.522 257.376 379.073C262.715 369.455 272.061 361.597 282.717 358.647C294.064 355.507 306.964 357.211 317.129 363.096C327.261 368.884 334.634 378.512 337.58 389.803C340.484 401.172 338.256 413.188 332.211 423.139C326.202 433.196 316.392 440.405 305 443.137C294.717 445.589 283.143 444.061 273.995 438.692C266.4 444.793 258.332 450.1 250.294 455.58L227.918 471.108C223.606 474.087 219 476.913 214.87 480.125C217.27 491.406 215.215 503.178 209.134 512.979C208.205 514.45 207.145 515.838 206.129 517.249C203.314 520.188 200.624 523.055 197.391 525.547C188.351 532.426 177.44 535.126 166.188 533.627C163.179 533.227 160.217 532.496 157.459 531.214C144.281 543.944 130.921 556.484 117.382 568.829C111.382 574.347 105.485 580.04 99.3847 585.439C102.828 595.221 101.917 607.153 97.4516 616.464C92.5081 626.82 83.6528 634.786 72.8345 638.612C62.6456 642.078 51.4936 641.321 41.8661 636.511C35.6059 633.423 29.6711 628.724 25.7541 622.905C24.4209 620.925 23.3842 618.674 22.0292 616.748C19.1892 609.426 17.8583 602.781 18.3307 594.886C18.9278 584.906 23.4705 574.878 30.9588 568.185C34.9272 564.46 40.1085 561.4 45.1868 559.466C53.4801 556.309 64.5902 555.797 72.8102 559.436C77.4793 554.319 83.1065 550.133 88.1742 545.426C97.3784 536.877 106.358 527.908 115.91 519.751C118.17 517.939 120.267 515.66 122.379 513.661C125.316 510.881 128.351 508.246 131.442 505.638C130.265 503.664 129.89 501.43 128.95 499.36C127.262 485.523 128.992 474.087 137.845 462.859C144.825 454.007 155.67 448.22 166.834 446.99C176.221 445.956 184.208 447.91 192.723 451.771C199.55 446.787 206.655 442.151 213.582 437.304C221.57 431.715 229.402 425.912 237.346 420.263C242.569 416.55 247.975 412.964 253.046 409.054Z"/><path fill="#00A4E3" fill-opacity="0.97647059" d="M401.062 119.515C409.698 118.734 417.461 120.265 424.229 125.981C430.522 131.295 434.741 139.079 435.34 147.334C435.855 155.442 433.138 163.423 427.782 169.532C421.653 176.553 414.687 178.725 405.68 179.286L387.968 204.953C384.117 210.467 380.33 216.108 376.028 221.281C380.437 227.889 383.032 235.115 383.077 243.101C383.093 254.482 378.612 265.408 370.609 273.5C361.558 282.569 350.946 285.871 338.409 285.849C337.188 285.752 335.97 285.612 334.759 285.431C323.759 283.878 313.849 277.955 307.273 269.001C300.668 259.893 297.97 247.686 299.8 236.607C301.705 225.438 307.982 215.488 317.242 208.958C326.223 202.626 337.348 200.113 348.179 201.97C358.034 188.236 367.544 174.044 378.287 160.988C377.419 158.965 376.791 156.934 376.409 154.764C375.036 146.965 376.569 138.558 381.141 132.047C386.04 125.071 392.713 120.945 401.062 119.515Z"/><path fill="#004077" d="M71.005 348.269C82.2658 347.863 93.0395 350.665 101.621 358.334C109.823 365.665 115.181 376.329 115.732 387.342C116.351 398.674 112.408 409.782 104.783 418.188C97.2908 426.353 86.1353 431.028 75.1577 431.539C70.614 443.465 66.4738 455.75 60.7326 467.164C61.669 468.662 62.4774 470.185 63.1515 471.82C65.7294 478.073 65.6625 485.598 63.0344 491.82C59.8149 499.442 53.9871 504.279 46.4691 507.342C39.991 509.288 33.1847 509.207 26.9653 506.385C20.3427 503.416 15.1872 497.916 12.6533 491.115C10.1785 484.368 10.5115 476.128 13.605 469.636C17.1353 462.227 23.2664 457.805 30.8344 455.084C34.9258 444.039 39.7813 430.298 45.1462 419.961C38.797 413.097 34.4366 403.222 33.5629 393.927C32.5292 382.928 36.1144 371.157 43.2232 362.682C50.2126 354.392 60.2025 349.209 71.005 348.269Z"/><path fill="#004077" d="M265.474 544.845C264.997 540.239 265.093 535.956 266.386 531.478C268.798 523.126 274.983 516.101 282.54 511.932C290.223 507.694 300.074 506.734 308.478 509.237C316.973 511.768 325.116 517.784 329.297 525.695C334.285 535.134 334.473 544.938 331.368 554.98L330.851 555.993C326.867 564.898 319.722 571.976 310.523 575.476C305.024 577.568 299.818 577.832 294.024 577.255C290.81 576.489 287.683 575.582 284.533 574.592C283.21 573.84 281.894 573.073 280.586 572.294C269.196 578.595 257.538 584.93 246.513 591.841C246.002 594.366 245.525 596.894 244.565 599.294C241.827 606.134 236.684 611.749 229.833 614.582C223.316 617.277 215.948 616.943 209.509 614.221C203.069 611.484 198.009 606.259 195.48 599.734C192.881 593.092 193.224 585.379 196.128 578.888C199.045 572.37 204.177 567.167 210.922 564.678C217.602 562.214 225.033 562.796 231.444 565.738C234.519 563.42 237.973 561.544 241.229 559.489C249.165 554.37 257.25 549.487 265.474 544.845Z"/><path fill="#0088CA" fill-opacity="0.96862745" d="M102.499 221.476C124.688 218.519 145.074 234.103 148.043 256.29C151.011 278.477 135.439 298.872 113.254 301.853C91.051 304.836 70.6365 289.249 67.6656 267.044C64.6947 244.84 80.2935 224.434 102.499 221.476Z"/><path fill="#0088CA" fill-opacity="0.96470588" d="M390.436 311.069C412.533 308.094 432.85 323.618 435.787 345.721C438.723 367.824 423.164 388.114 401.056 391.012C379.003 393.903 358.773 378.391 355.844 356.342C352.914 334.293 368.392 314.037 390.436 311.069Z"/><path fill="#0088CA" fill-opacity="0.98039216" d="M134.955 329.771C139.295 318.481 146.554 309.508 157.824 304.574C167.617 300.306 178.713 300.147 188.624 304.133C198.779 308.023 206.897 315.903 211.088 325.937C214.919 334.893 215.395 346.058 211.721 355.154C211.1 356.685 210.382 358.176 209.572 359.616C206.73 358.017 193.794 355.049 189.471 353.624C173.817 348.461 148.714 338.554 134.955 329.771Z"/><path fill="#00A4E3" fill-opacity="0.98039216" d="M242.484 149.837C258.12 148.632 271.812 160.237 273.187 175.859C274.562 191.481 263.106 205.298 247.5 206.842C237.253 207.856 227.252 203.286 221.311 194.876C215.37 186.466 214.406 175.512 218.787 166.193C223.168 156.875 232.217 150.628 242.484 149.837Z"/><path fill="#00A4E3" fill-opacity="0.98039216" d="M588.558 128.975C603.959 126.526 618.434 137.011 620.908 152.407C623.382 167.804 612.922 182.296 597.529 184.796C582.101 187.302 567.567 176.811 565.087 161.379C562.606 145.946 573.121 131.43 588.558 128.975Z"/><path fill="#004077" d="M134.955 329.771C148.714 338.554 173.817 348.461 189.471 353.624C193.794 355.049 206.73 358.017 209.572 359.616C202.72 370.453 195.27 377.98 182.316 380.943C172.095 383.28 160.864 381.537 151.984 375.934C148.34 373.635 145.427 370.815 142.437 367.753C133.301 355.674 133.097 347.896 133.741 333.431L134.955 329.771Z"/><path fill="#00A4E3" fill-opacity="0.97647059" d="M499.476 171.273C513.391 169.558 526.039 179.507 527.649 193.435C529.26 207.362 519.215 219.935 505.276 221.44C491.485 222.93 479.074 213.015 477.481 199.235C475.888 185.455 485.709 172.97 499.476 171.273Z"/><path fill="#0088CA" fill-opacity="0.97254902" d="M256.054 268.842C268.546 266.587 280.483 274.94 282.644 287.449C284.804 299.957 276.361 311.831 263.837 313.897C251.445 315.942 239.725 307.607 237.587 295.232C235.449 282.856 243.695 271.073 256.054 268.842Z"/><path fill="#00A4E3" fill-opacity="0.98431373" d="M497.602 95.0936C508.591 92.8786 519.294 99.9898 521.511 110.978C523.727 121.966 516.618 132.671 505.63 134.889C494.64 137.107 483.933 129.996 481.716 119.006C479.499 108.015 486.612 97.309 497.602 95.0936Z"/><path fill="#0088CA" fill-opacity="0.97647059" d="M552.263 238.236C563.18 236.586 573.371 244.091 575.033 255.007C576.696 265.923 569.202 276.122 558.288 277.796C547.357 279.473 537.139 271.965 535.474 261.032C533.809 250.1 541.328 239.89 552.263 238.236Z"/><path fill="#0088CA" fill-opacity="0.97254902" d="M458.023 248.854C467.227 247.229 475.995 253.404 477.565 262.617C479.135 271.83 472.908 280.562 463.686 282.077C454.541 283.58 445.898 277.416 444.341 268.28C442.784 259.144 448.897 250.465 458.023 248.854Z"/><path fill="#0088CA" fill-opacity="0.98039216" d="M477.946 319.969C485.439 318.367 492.823 323.108 494.484 330.589C496.146 338.07 491.465 345.491 483.997 347.212C476.445 348.954 468.921 344.207 467.24 336.641C465.56 329.075 470.366 321.589 477.946 319.969Z"/><path fill="#00A4E3" fill-opacity="0.98431373" d="M650.161 98.2077C657.49 96.5362 664.782 101.139 666.425 108.475C668.069 115.81 663.438 123.084 656.096 124.7C648.794 126.306 641.568 121.706 639.933 114.41C638.298 107.114 642.871 99.8702 650.161 98.2077Z"/></svg>